<?xml version="1.0" standalone="no"?>
<!DOCTYPE svg PUBLIC "-//W3C//DTD SVG 20010904//EN"
 "http://www.w3.org/TR/2001/REC-SVG-20010904/DTD/svg10.dtd">
<svg version="1.0" xmlns="http://www.w3.org/2000/svg"
 width="900.000000pt" height="900.000000pt" viewBox="0 0 900.000000 900.000000"
 preserveAspectRatio="xMidYMid meet">
<metadata>
Created by potrace 1.14, written by Peter Selinger 2001-2017
</metadata>
<g transform="translate(0.000000,900.000000) scale(0.100000,-0.100000)"
fill="#000000" stroke="none">
<path d="M0 4500 l0 -4500 4500 0 4500 0 0 4500 0 4500 -4500 0 -4500 0 0
-4500z m4594 3100 c239 -23 468 -86 661 -181 252 -124 499 -337 637 -548 171
-262 373 -803 407 -1091 12 -100 28 -334 37 -547 l6 -151 55 44 c111 90 202
116 257 73 67 -52 122 -224 112 -349 -9 -125 -147 -772 -189 -886 -36 -100
-94 -181 -146 -209 -29 -14 -158 -35 -222 -35 -46 0 -44 15 -24 -190 19 -192
19 -468 0 -595 -19 -126 -71 -236 -215 -455 -256 -388 -756 -1007 -977 -1210
-57 -52 -72 -61 -136 -75 -174 -40 -748 -37 -923 5 -141 33 -133 24 -274 317
-158 330 -424 861 -538 1073 -113 211 -187 330 -251 403 -64 73 -120 167 -182
306 -54 121 -109 282 -109 319 0 13 -12 39 -26 57 -39 51 -107 216 -184 445
-95 281 -136 443 -131 522 1 26 59 86 103 109 43 22 44 25 23 92 -19 62 -61
338 -76 497 -18 195 -16 469 5 565 67 305 301 666 686 1059 263 268 386 362
612 471 302 145 635 199 1002 165z"/>
<path d="M3845 6184 c-16 -49 -26 -65 -47 -75 -13 -6 -31 -28 -42 -50 -10 -22
-29 -45 -42 -51 -13 -6 -24 -14 -24 -17 0 -3 18 -17 39 -30 47 -29 58 -49 65
-121 l6 -55 -51 -38 c-27 -20 -59 -37 -69 -37 -14 0 -19 -7 -18 -27 1 -37 -29
-115 -49 -130 -9 -7 -41 -13 -71 -13 -51 0 -58 3 -93 39 l-37 40 -12 -30 c-7
-16 -25 -40 -40 -52 -15 -12 -32 -36 -39 -54 -7 -18 -27 -41 -45 -52 l-31 -20
34 -7 c22 -5 39 -17 50 -35 9 -16 30 -34 48 -40 19 -6 40 -24 54 -47 l22 -37
9 32 c12 46 60 76 127 81 56 4 56 4 75 -33 11 -20 28 -41 39 -47 15 -7 18 -17
13 -39 -5 -26 -4 -28 17 -18 31 14 135 -33 142 -64 9 -47 24 -168 36 -301 l13
-139 -43 -39 c-23 -22 -41 -41 -39 -42 2 -2 18 -8 36 -16 18 -7 41 -23 50 -35
10 -12 31 -29 48 -38 17 -8 36 -28 43 -44 l14 -28 7 26 c12 42 29 67 50 74 11
4 27 22 34 40 9 20 28 41 48 51 l33 17 -40 17 c-22 9 -45 23 -52 31 -10 12
-53 371 -53 440 0 20 13 37 54 68 47 36 58 41 75 31 24 -12 26 -8 10 22 -15
27 2 86 37 128 23 27 32 30 81 30 53 0 58 -2 95 -42 34 -38 38 -39 38 -18 0
14 15 38 38 59 20 20 43 49 49 64 7 15 26 36 42 45 l30 17 -42 15 c-24 9 -46
25 -52 38 -5 12 -15 22 -22 22 -7 0 -31 16 -53 36 -22 20 -42 35 -43 33 -2 -2
-9 -17 -17 -32 -17 -35 -55 -55 -114 -63 -43 -6 -45 -5 -69 32 -13 22 -32 45
-41 53 -10 9 -14 21 -10 37 6 25 -1 30 -25 15 -9 -6 -25 -2 -45 10 -17 10 -41
19 -52 19 -31 0 -41 18 -46 85 -6 70 2 91 46 125 l33 24 -40 20 c-22 11 -47
32 -55 46 -9 15 -29 31 -46 36 -20 6 -37 21 -48 43 -15 30 -18 32 -23 15z
m210 -438 c44 -19 47 -40 5 -31 -31 7 -36 0 -21 -24 10 -15 -6 -61 -21 -61 -4
0 -8 12 -8 28 0 15 -3 44 -6 65 -7 42 -2 45 51 23z m-246 -103 c1 -36 -9 -42
-30 -17 -10 12 -10 20 -1 35 16 25 15 29 -3 29 -9 0 -18 -7 -21 -15 -5 -12
-10 -13 -20 -4 -21 17 -18 23 24 53 l37 26 7 -37 c4 -21 7 -53 7 -70z m350 16
c13 -17 21 -32 19 -34 -2 -2 -28 -7 -57 -11 -44 -6 -53 -4 -49 7 3 9 16 13 33
11 26 -3 27 -1 22 27 -8 39 3 39 32 0z m-460 -40 c-16 -30 -2 -40 31 -21 27
16 30 16 46 1 15 -16 15 -17 -2 -22 -45 -13 -113 -17 -118 -8 -10 16 25 80 40
74 10 -4 11 -10 3 -24z m768 -45 c7 -19 -12 -63 -31 -70 -18 -7 -65 25 -66 44
0 7 12 24 27 37 29 24 58 20 70 -11z m-1002 -107 c30 -26 27 -47 -12 -68 -23
-13 -27 -11 -49 15 l-24 28 22 24 c28 29 31 29 63 1z m745 -61 c0 -7 -7 -19
-15 -26 -8 -7 -14 -20 -13 -29 2 -9 -4 -16 -12 -16 -10 0 -14 8 -12 27 3 28
-12 46 -23 28 -10 -17 -25 -11 -25 10 0 17 7 20 50 20 36 0 50 -4 50 -14z
m-430 -51 c0 -9 -9 -15 -25 -15 -27 0 -32 -9 -13 -28 9 -9 9 -15 0 -24 -10
-10 -18 -6 -37 17 -40 49 -35 55 58 63 9 1 17 -5 17 -13z m296 -40 c-7 -27 11
-34 32 -13 9 9 15 9 25 -1 10 -11 9 -15 -2 -19 -8 -3 -26 -16 -39 -29 -13 -13
-26 -23 -27 -21 -2 2 -7 27 -11 56 -6 45 -4 52 11 52 13 0 16 -6 11 -25z
m-222 -54 c10 -47 3 -61 -22 -43 -9 7 -25 15 -34 18 -10 4 -18 12 -18 20 0 10
8 12 30 8 33 -7 36 -3 19 28 -9 16 -8 19 3 16 7 -3 17 -23 22 -47z"/>
<path d="M4690 4478 c-214 -130 -343 -228 -383 -290 -11 -15 -23 -25 -28 -22
-5 3 -9 -2 -9 -10 0 -25 14 -19 33 13 36 61 197 173 415 291 112 60 138 82
101 87 -8 1 -66 -30 -129 -69z"/>
<path d="M3192 4343 c2 -10 52 -29 153 -58 250 -72 390 -129 448 -183 24 -23
27 -23 27 -7 0 10 -3 15 -6 12 -4 -4 -20 5 -37 19 -59 49 -208 112 -445 187
-111 35 -142 42 -140 30z"/>
<path d="M5343 4273 c15 -2 39 -2 55 0 15 2 2 4 -28 4 -30 0 -43 -2 -27 -4z"/>
<path d="M5010 4254 c-233 -31 -489 -93 -613 -148 -29 -13 -91 -28 -137 -35
-47 -6 -102 -14 -122 -17 l-38 -6 0 46 c0 24 -4 48 -10 51 -6 4 -10 -13 -10
-44 l0 -49 -65 -7 c-79 -9 -91 -5 -98 34 -8 40 -36 105 -42 99 -3 -3 4 -34 14
-69 11 -35 19 -64 17 -66 -1 -1 -18 2 -37 7 -71 21 -411 8 -784 -30 l-180 -18
250 7 c138 3 347 5 465 4 118 -2 287 -4 375 -4 199 -3 325 16 449 66 180 73
448 137 726 174 l145 19 -100 0 c-55 0 -147 -6 -205 -14z"/>
<path d="M4281 4204 c0 -11 3 -14 6 -6 3 7 2 16 -1 19 -3 4 -6 -2 -5 -13z"/>
<path d="M5040 4190 c-288 -45 -500 -94 -591 -139 -43 -21 -55 -32 -57 -53 -5
-42 48 -75 149 -95 161 -30 591 -4 680 42 16 9 36 30 46 48 21 39 23 139 4
185 -13 30 -16 32 -65 31 -28 -1 -103 -9 -166 -19z"/>
<path d="M3168 3993 c-81 -5 -93 -19 -85 -99 11 -107 45 -134 171 -134 233 1
484 71 518 146 16 35 -3 51 -87 69 -72 15 -388 27 -517 18z"/>
<path d="M3810 3918 c29 -50 51 -125 44 -152 -3 -12 -60 -71 -127 -131 -153
-139 -216 -201 -247 -245 -24 -33 -22 -33 30 12 30 26 87 83 126 126 39 43
107 102 150 132 44 30 82 59 86 64 15 21 8 100 -12 141 -11 23 -32 53 -46 66
l-26 24 22 -37z"/>
<path d="M4337 3788 c8 -57 13 -61 13 -10 l0 42 38 -15 c72 -28 349 -103 472
-128 194 -39 227 -40 90 -2 -176 50 -586 155 -604 155 -11 0 -13 -10 -9 -42z"/>
<path d="M3951 3515 c-3 -297 -8 -341 -43 -378 -33 -35 -52 -135 -46 -249 4
-88 17 -108 69 -108 22 0 29 -7 43 -45 19 -49 62 -91 104 -102 46 -11 169 13
235 46 49 24 75 46 122 106 48 59 64 74 80 69 11 -3 43 -8 71 -11 43 -4 52 -2
59 13 5 11 10 87 13 169 5 181 5 180 -115 199 l-78 12 -37 149 c-45 184 -49
174 -7 -18 31 -138 31 -143 15 -188 -19 -54 -19 -59 -6 -59 5 0 15 18 21 41 7
23 18 43 25 46 7 2 43 -1 81 -9 l68 -13 8 -50 c9 -57 0 -245 -13 -265 -7 -11
-19 -11 -71 4 -61 17 -63 17 -79 -2 -8 -11 -37 -47 -64 -81 -68 -85 -145 -123
-259 -129 -80 -4 -83 -3 -110 26 -16 16 -35 47 -42 68 -11 35 -17 40 -51 44
-50 6 -64 34 -64 125 0 96 22 184 52 206 23 18 23 21 26 236 2 120 1 256 0
303 -2 47 -5 -23 -7 -155z"/>
<path d="M4351 3714 c0 -11 3 -14 6 -6 3 7 2 16 -1 19 -3 4 -6 -2 -5 -13z"/>
<path d="M4360 3669 c0 -11 4 -18 10 -14 5 3 7 12 3 20 -7 21 -13 19 -13 -6z"/>
<path d="M4409 3608 c19 -25 51 -61 72 -78 69 -55 199 -111 290 -124 35 -5 26
0 -46 27 -150 56 -239 108 -309 181 l-39 41 32 -47z"/>
<path d="M4371 3604 c0 -11 3 -14 6 -6 3 7 2 16 -1 19 -3 4 -6 -2 -5 -13z"/>
<path d="M4382 3560 c0 -14 2 -19 5 -12 2 6 2 18 0 25 -3 6 -5 1 -5 -13z"/>
<path d="M4460 2270 c-27 -21 -171 -50 -250 -50 -44 0 -187 -36 -178 -45 2 -2
32 5 67 15 37 12 91 20 132 20 82 0 214 25 248 47 20 13 46 14 145 10 131 -6
92 6 -54 17 -75 5 -88 3 -110 -14z"/>
<path d="M4773 2253 c9 -2 25 -2 35 0 9 3 1 5 -18 5 -19 0 -27 -2 -17 -5z"/>
<path d="M4530 2209 c-29 -22 -129 -43 -179 -36 -45 5 -205 -17 -341 -48 -131
-29 -116 -30 86 -5 87 11 197 20 244 20 98 0 199 21 216 44 7 11 27 16 60 16
27 0 94 3 149 7 l100 8 -60 6 c-33 4 -103 7 -155 7 -79 1 -99 -2 -120 -19z"/>
<path d="M4645 2013 c-55 -7 -208 -22 -340 -33 -211 -16 -222 -18 -95 -14 239
8 550 41 569 60 6 6 -19 3 -134 -13z"/>
</g>
</svg>
